<svg xmlns="http://www.w3.org/2000/svg" viewBox="0 0 512 512" width="48px" height="48px"><path fill="#1E4384" d="M174.2 288.9c-2.6-3.6-14-19-13.8-27.7-5.5.6-11.1.8-16.8.6-24.7-.8-50.1-5.8-71.7-18.3-10.2-5.9-24.2-15.3-30.9-27.1-.2.5-.4 1-.6 1.5-.1.9-.3 1.9-.4 2.7-.9 4.1-2 8.2-2.7 12.3-1.4 7.7-1.1 15.7-3.8 23-.2 2.1-.5 4.2-.8 6.3 0 .3 0 .5 0 .7-.5 4.4-.9 8.8-1.3 13.2-.8 9.2-1.2 18.4-1.1 27.6.3 18.1 2.4 36.2 6.9 53.7.3 1 .5 2 .8 3 .2 0 .4-.1.6-.1 18.5-21.2 41.6-38 67.7-48.7 23.2-9.5 48-14.4 73-15.7C177.6 293.6 175.9 291.3 174.2 288.9zM280 367.7c-4.4-11.4-12.6-23.5-22.8-30.5-6.7-4.6-14.1-7.8-21.7-10.6-4.8 2.3-10.5 3.1-15.7 3.7-7.4.9-14.7 1.5-22 3.2-19.1 4.4-38.5 10.4-56.2 18.9-8.6 4.1-16.9 8.7-24.9 13.9-7.4 4.8-15.2 9.6-21.6 15.8-11.1 10.8-20.1 23.5-32.3 33.2 7.4 10.8 16.1 20.8 26.2 29.4 7.4 6.3 15.3 11.7 23.6 16.3.3.3.7.6 1.1.8.2 0 .3.1.5.1.4.2.9.5 1.3.7v-.4c10.7 2.8 23 2.4 34.3-1.1 15.1-.2 30.2-1.7 44.6-6 20-5.9 40.2-14.2 57.4-26.1 9.8-6.8 19.6-15 25.6-25.5C284.1 392.5 284.7 379.8 280 367.7zM198.9 126.4c-1.7-9.1-7.8-18.4-13.4-25.6-6-7.7-14.5-16-24.9-16.3-2.5-.1-4.2-1.5-5.1-3.3-22.1 11-42.7 25.4-60.2 42.6 0 .8-.2 1.7-.7 2.7-13.1 25.1 10.3 54 28.7 69.1 12.7 10.4 31.1 21.8 48.1 15.3 14.2-5.5 21.7-21 25.3-34.9C200.9 160 202 142.7 198.9 126.4z"/><path fill="#D03827" d="M465.8,184.5c-21.3-43.4-61.6-77.5-104.2-99c-34.2-17.3-72.6-28-111-27.8c12.7,11.8,16.1,30.9,16.8,48c1,22.6,1.4,46.9-5.5,68.6c-2.7,8.4-6.4,16.2-11,23.4c2-0.9,4.1-1.7,6.1-2.5c25.5-10,53.1-13.4,80.2-14.9c27.8-1.6,56.2-0.7,83.5,5.1c18.2,3.9,36.5,9.1,52.8,18.1C471.5,197,468.9,190.7,465.8,184.5z"/><path fill="#D6E5E5" d="M339.3,339.4c-5.3-12.6-12.2-25-22.8-33.9c-9.1-7.7-19.8-12.6-30.9-16.7c-21-7.7-44.5-14.5-58-33.8c-4.4-6.3-7.9-13.5-9.2-21.1c0.3-5.1,1.4-10.2,3.5-14.9c2.9-6.5,9.6-11.3,12.5-17.7c0.2,0,0.3,0,0.5,0c4.3-5.2,8.2-10.8,11.2-17c10.4-21.6,10.8-45.7,10.5-69.2c-0.2-18.3-0.9-43.8-19.5-53.6c-1.5-0.8-2.3-1.9-2.7-3.1c-4.4,0.4-8.7,0.9-13,1.6c-17.8,2.8-35.5,8-52.5,15.1c18.4,5.4,31.3,24.8,38.3,41.7c6.5,15.6,5.2,36,2.3,52.2c-2.9,15.9-8.8,32.9-21.1,44c-13.4,12.1-31.3,12.9-47.6,6.4c-18.9-7.5-36-23.3-47.4-40c-7.9-11.5-13.8-25.3-13.6-39c-13.8,16.6-24.9,35.2-32.4,55.3c0.9,1.1,1.4,2.6,1,4.4c-2.7,12.4,13.2,23.9,22.1,29.7c12.5,8.1,26.3,13.8,40.8,17c13.3,2.9,27.1,4.5,40.7,4c5-0.2,9.9-0.8,14.7-1.8c0.9,5.2,3,10.1,5.2,15c0,0.1-0.1,0.1-0.1,0.2c0.1,0.3,0.3,0.7,0.4,1c1.1,2.4,2.4,4.6,3.8,6.9c3.4,5.5,7.2,10.9,11,16.1c1.6,2.1,3.1,4.3,4.7,6.4c0.3,0.4,0.5,0.7,0.8,1c0,0,0,0,0,0c0,0,0,0,0.1,0c0.3,1.1,0.5,2.2,0.6,3.3c0.3,3.7-4,6.1-6.7,7.6c-0.1,0.1-0.3,0.1-0.4,0.2c-26.1,0.7-52.2,5.2-76.4,15.3c-26.3,11-49,28.2-67.1,50.2c-0.3,0.3-0.6,0.6-0.9,0.9c4,11.5,9,22.6,15.1,33c12.5-10,21.4-23.6,33.3-34.2c13.5-11.8,30-21.2,46.1-29c17.6-8.5,36.8-14.9,55.9-19.3c7.5-1.7,15-3,22.6-3.8c0.2,0,0.5,0,0.7-0.1c-0.4-0.1-0.7-0.3-1.1-0.4c3.3-0.6,6.7-1.3,10-1.4c6.4-0.2,12.8-0.3,19.1,0.1c7.3,2.9,14.4,6.3,20.9,10.9c10,7.2,18.4,18.5,23.6,29.6c5.2,10.9,7.9,23.8,5,35.8c-2.9,12-10,22.5-18.9,30.9c-18,17.2-41,28.6-64.4,36.5c-14.1,4.8-28.1,8.4-43.1,9.6c-10,0.8-20.1,1-30.1,0.7c4.9,1.8,9.9,3.5,14.9,5c11.4,3.3,23.1,6,34.9,7.9c0.8-0.9,1.9-1.7,3.4-1.9c28.8-5.4,59.5-8.4,85.7-22.8c21.5-11.8,43.5-25.6,58-46c7.3-10.3,12.6-22.4,13.4-35.1C347.8,365.6,344.6,351.8,339.3,339.4z"/><path fill="#2B8C5E" d="M478.5,221h-1.7c-2-5-6.2-8.5-12.2-10.1c-13.9-7-29.3-11.3-44.3-14.5c-23.8-5.1-48.3-6.6-72.7-5.7c-23.8,0.9-48.8,2.6-71.7,9.5c-10.9,3.3-21.6,7.4-31.6,12.9c-3.1,1.7-6.4,3.4-9.3,5.4c-0.6,0.4-1.2,0.8-1.9,1.2c-0.5,0.5-1,1-1.5,1.5c0,0.2,0,0.5-0.1,0.7c-0.2,0.2-0.5,0.4-0.7,0.6c-0.7,0.8-0.9,1.7-0.9,2.7c-0.3,0.3-0.6,0.6-1,0.9c-0.2,3.1,0.2,6.2,1.1,9.1c3.2,10.3,10.2,19.8,19.3,25.7c20.6,13.3,45.8,16.5,66.3,30.1c22,14.6,35.8,40.9,40.6,66.4c4.9,26.1-2.7,51.1-20.1,71c-16.3,18.7-38.4,33.3-60.7,44c-17,8.2-35.3,12.5-53.7,15.9c2.3,0.1,4.6,0.1,6.8,0.1c51.5,0.1,103.2-13.9,145.6-43.7C442.6,396.7,496.4,305.5,478.5,221z"/><path d="M487.6,217.8c0.3-0.7,0.5-1.4,0.5-2.2c-0.3-1-0.5-2.1-0.8-3.1c-0.3-0.4-0.6-0.8-1-1.1c-0.1-0.1-0.2-0.1-0.2-0.2c-4.4-16.6-11.2-32.7-20.5-47.7c-25.2-40.4-65.9-71.6-108.7-91.6c-43.3-20.2-92.9-29.5-140.3-21.3c-81.8,14.2-160,74.7-182.9,155.6c-3.3,5.5-3.8,13.1-5.2,19.2c-1,4.3-1.7,8.7-2.3,13.1c-0.1,0.4-0.1,0.9-0.2,1.3c-0.1,0.3-0.2,0.5-0.2,0.8c-0.8,4.2-1.5,8.4-2.1,12.6c0,0.1-0.1,0.1-0.1,0.2c-0.5,1.2-0.6,2.3-0.4,3.2c-1,8.1-1.7,16.2-2.3,24.3c-0.8,11.4-0.9,22.9-0.3,34.3c1.3,22.3,5.6,44.5,13.3,65.5c15.3,41.8,45.5,76.5,86.1,95.3c23.1,10.6,48.8,16.7,73.9,20c25.5,3.3,51.5,3.1,77-0.6c50.9-7.4,98.5-29.7,136.1-64.8c36.4-33.9,65-77.6,78.1-125.8C493.1,276.2,493.9,246.3,487.6,217.8z M361.6,85.4c42.6,21.5,82.8,55.7,104.2,99c3.1,6.2,5.6,12.5,7.8,18.9c-16.3-9-34.6-14.2-52.8-18.1c-27.3-5.8-55.7-6.7-83.5-5.1c-27.2,1.5-54.8,4.9-80.2,14.9c-2.1,0.8-4.1,1.7-6.1,2.5c4.6-7.2,8.3-15,11-23.4c6.9-21.7,6.5-46,5.5-68.6c-0.7-17.1-4.2-36.2-16.8-48C289,57.4,327.4,68.2,361.6,85.4z M94.6,126.5c0.5-0.9,0.7-1.8,0.7-2.7c17.6-17.2,38.1-31.6,60.2-42.6c0.9,1.8,2.6,3.3,5.1,3.3c10.4,0.3,18.9,8.6,24.9,16.3c5.6,7.2,11.7,16.5,13.4,25.6c3.1,16.3,2,33.6-2.1,49.6c-3.6,13.9-11.1,29.4-25.3,34.9c-17,6.5-35.5-4.8-48.1-15.3C104.9,180.5,81.5,151.6,94.6,126.5z M37.9,360.4c-0.3-1-0.6-2-0.8-3c-4.6-17.5-6.6-35.6-6.9-53.7c-0.2-9.2,0.2-18.4,1.1-27.6c0.4-4.4,0.8-8.8,1.3-13.2c0-0.2,0-0.5,0-0.7c0.3-2.1,0.6-4.2,0.8-6.3c2.7-7.3,2.4-15.4,3.8-23c0.8-4.1,1.8-8.2,2.7-12.3c0.2-0.8,0.3-1.7,0.4-2.7c0.2-0.5,0.4-1,0.6-1.5c6.6,11.8,20.6,21.2,30.9,27.1c21.6,12.5,47,17.5,71.7,18.3c5.7,0.2,11.3,0,16.8-0.6c-0.2,8.7,11.3,24.1,13.8,27.7c1.7,2.4,3.4,4.7,5.1,7c-25,1.3-49.8,6.1-73,15.7c-26.1,10.7-49.2,27.5-67.7,48.7C38.3,360.3,38.1,360.3,37.9,360.4z M115.7,462.4v0.4c-0.4-0.2-0.9-0.5-1.3-0.7c-0.2,0-0.3-0.1-0.5-0.1c-0.5-0.1-0.9-0.4-1.1-0.8c-8.3-4.7-16.2-10-23.6-16.3c-10.1-8.6-18.8-18.6-26.2-29.4c12.2-9.6,21.2-22.4,32.3-33.2c6.3-6.2,14.2-11,21.6-15.8c8-5.2,16.3-9.8,24.9-13.9c17.6-8.5,37.1-14.6,56.2-18.9c7.3-1.7,14.6-2.4,22-3.2c5.2-0.6,10.9-1.3,15.7-3.7c7.6,2.8,15,6,21.7,10.6c10.2,7,18.4,19.1,22.8,30.5c4.7,12.1,4,24.8-2.4,36c-6,10.5-15.8,18.7-25.6,25.5c-17.2,11.9-37.4,20.1-57.4,26.1c-14.4,4.3-29.5,5.8-44.6,6C138.7,464.7,126.3,465.2,115.7,462.4z M189.7,483.1c-1.5,0.3-2.6,1-3.4,1.9c-11.8-1.9-23.4-4.6-34.9-7.9c-5.1-1.5-10-3.1-14.9-5c10,0.2,20.1,0.1,30.1-0.7c14.9-1.2,28.9-4.8,43.1-9.6c23.4-7.9,46.5-19.4,64.4-36.5c8.8-8.5,16-19,18.9-30.9c2.9-12,0.1-24.9-5-35.8c-5.2-11.1-13.6-22.4-23.6-29.6c-6.5-4.6-13.6-8-20.9-10.9c-6.3-0.4-12.7-0.3-19.1-0.1c-3.3,0.1-6.6,0.8-10,1.4c0.4,0.1,0.7,0.3,1.1,0.4c-0.2,0-0.5,0-0.7,0.1c-7.6,0.8-15.1,2.1-22.6,3.8c-19.1,4.4-38.3,10.8-55.9,19.3c-16.1,7.8-32.6,17.1-46.1,29c-12,10.5-20.9,24.2-33.3,34.2c-6.1-10.4-11.1-21.5-15.1-33c0.3-0.2,0.7-0.5,0.9-0.9c18-22,40.8-39.2,67.1-50.2c24.2-10.1,50.3-14.6,76.4-15.3c0.1-0.1,0.3-0.1,0.4-0.2c2.7-1.4,7-3.9,6.7-7.6c-0.1-1.1-0.3-2.2-0.6-3.3c0,0,0,0-0.1,0c0,0,0,0,0,0c-0.3-0.3-0.6-0.7-0.8-1c-1.6-2.1-3.1-4.3-4.7-6.4c-3.8-5.3-7.6-10.6-11-16.1c-1.4-2.2-2.7-4.5-3.8-6.9c-0.1-0.3-0.3-0.7-0.4-1c0.1-0.1,0.1-0.1,0.1-0.2c-2.1-4.9-4.2-9.7-5.2-15c-4.8,1-9.7,1.6-14.7,1.8c-13.7,0.5-27.4-1.1-40.7-4c-14.5-3.2-28.4-8.9-40.8-17c-8.9-5.8-24.7-17.3-22.1-29.7c0.4-1.8-0.1-3.3-1-4.4c7.5-20.1,18.6-38.7,32.4-55.3c-0.2,13.7,5.7,27.5,13.6,39c11.3,16.7,28.4,32.5,47.4,40c16.3,6.4,34.2,5.7,47.6-6.4c12.3-11.2,18.2-28.1,21.1-44c3-16.2,4.2-36.6-2.3-52.2c-7-16.9-19.9-36.3-38.3-41.7c17-7.1,34.7-12.3,52.5-15.1c4.3-0.7,8.7-1.2,13-1.6c0.4,1.2,1.2,2.4,2.7,3.1c18.6,9.7,19.2,35.3,19.5,53.6c0.3,23.5-0.1,47.6-10.5,69.2c-3,6.2-6.9,11.8-11.2,17c-0.2,0-0.3,0-0.5,0c-3,6.4-9.6,11.1-12.5,17.7c-2.1,4.7-3.2,9.7-3.5,14.9c1.3,7.6,4.8,14.8,9.2,21.1c13.5,19.3,37,26.1,58,33.8c11.1,4.1,21.8,9.1,30.9,16.7c10.5,8.9,17.5,21.3,22.8,33.9c5.2,12.4,8.4,26.2,7.5,39.7c-0.9,12.8-6.1,24.8-13.4,35.1c-14.5,20.4-36.5,34.2-58,46C249.3,474.7,218.6,477.6,189.7,483.1z M374.2,444.8c-42.4,29.8-94.1,43.8-145.6,43.7c-2.3,0-4.6-0.1-6.8-0.1c18.4-3.5,36.6-7.8,53.7-15.9c22.3-10.7,44.3-25.3,60.7-44c17.4-19.9,25-44.9,20.1-71c-4.8-25.6-18.6-51.8-40.6-66.4c-20.5-13.6-45.7-16.8-66.3-30.1c-9.1-5.9-16.1-15.4-19.3-25.7c-0.9-2.9-1.3-6-1.1-9.1c0.4-0.3,0.7-0.6,1-0.9c0-1,0.2-1.8,0.9-2.7c0.2-0.2,0.4-0.4,0.7-0.6c0-0.2,0.1-0.5,0.1-0.7c0.5-0.5,1-1,1.5-1.5c0.6-0.4,1.3-0.8,1.9-1.2c3-2,6.2-3.7,9.3-5.4c10-5.5,20.7-9.6,31.6-12.9c22.9-6.9,47.9-8.6,71.7-9.5c24.3-0.9,48.8,0.7,72.7,5.7c15,3.2,30.4,7.5,44.3,14.5c6,1.6,10.2,5.2,12.2,10.1h1.7C496.4,305.5,442.6,396.7,374.2,444.8z"/></svg>